<svg version="1.2" baseProfile="tiny" viewBox="0 0 18.000 18.000" xmlns:xlink="http://www.w3.org/1999/xlink" xmlns="http://www.w3.org/2000/svg">
<path style="fill:#ffffff;" d="M9.117,4.028l-0.07,1.146C9.036,5.336,8.896,5.49,8.731,5.511l-0.41,0.057   c-0.08,0.011-0.185,0.02-0.294,0.023C7.833,6.125,7.515,6.613,7.087,7.01c0.039,0.101,0.072,0.2,0.093,0.277l0.109,0.396   c0.042,0.159-0.044,0.351-0.19,0.424L6.066,8.618C5.919,8.692,5.715,8.645,5.613,8.516L5.359,8.192   C5.31,8.127,5.25,8.04,5.192,7.952c-0.577,0.1-1.159,0.059-1.703-0.105c-0.069,0.083-0.14,0.162-0.197,0.22L3.002,8.358   C2.885,8.474,2.676,8.495,2.539,8.404L1.578,7.771C1.44,7.681,1.377,7.482,1.44,7.331l0.155-0.38   c0.03-0.078,0.077-0.172,0.127-0.266C1.542,6.469,1.381,6.232,1.25,5.971C1.117,5.708,1.024,5.437,0.96,5.164   c-0.105-0.017-0.21-0.04-0.29-0.058L0.271,5c-0.16-0.042-0.282-0.212-0.271-0.375L0.069,3.48c0.012-0.163,0.153-0.316,0.317-0.34   l0.408-0.056c0.081-0.011,0.188-0.021,0.294-0.023C1.286,2.528,1.604,2.041,2.03,1.643c-0.039-0.1-0.074-0.199-0.093-0.278   L1.828,0.968c-0.042-0.157,0.043-0.348,0.19-0.42L3.05,0.034c0.148-0.072,0.352-0.027,0.453,0.104L3.756,0.46   c0.051,0.065,0.11,0.151,0.167,0.242C4.5,0.601,5.083,0.644,5.63,0.807c0.066-0.082,0.137-0.162,0.195-0.22l0.291-0.292   c0.116-0.117,0.323-0.139,0.462-0.046L7.54,0.881c0.137,0.09,0.199,0.291,0.137,0.441L7.521,1.702   C7.489,1.779,7.444,1.874,7.394,1.969c0.181,0.215,0.342,0.453,0.474,0.714C8,2.946,8.092,3.215,8.156,3.489   c0.105,0.017,0.211,0.038,0.29,0.059l0.399,0.104C9.006,3.695,9.127,3.864,9.117,4.028z M3.812,2.116   c-1.228,0.41-1.888,1.732-1.475,2.952c0.411,1.222,1.74,1.878,2.967,1.47c1.228-0.411,1.89-1.732,1.477-2.955   C6.37,2.363,5.041,1.705,3.812,2.116z M14.544,7.499c0.932,0.188,1.901-0.055,2.665-0.812c0.771-0.767,0.937-1.674,0.676-2.548   l-0.78,0.774l-0.816,0.812l-1.115-0.297L14.06,5.131l-0.3-1.109l-0.3-1.11l0.817-0.813l0.778-0.772   c-0.883-0.263-1.788-0.097-2.56,0.67c-0.764,0.759-1.007,1.724-0.816,2.652c0.093,0.449-0.038,0.88-0.362,1.203l-5.802,5.772   c-0.291,0.29-0.665,0.423-1.073,0.381c-0.866-0.084-1.767,0.204-2.432,0.867c-1.179,1.173-1.179,3.076,0,4.248   c1.178,1.174,3.091,1.174,4.271,0c0.663-0.66,0.954-1.559,0.868-2.42c-0.04-0.406,0.092-0.776,0.385-1.067l5.799-5.772   C13.66,7.536,14.095,7.406,14.544,7.499L14.544,7.499z M6.374,14.401l-0.158,0.594l0.158,0.595l-0.436,0.437l-0.159,0.593   L5.18,16.778l-0.437,0.437l-0.6-0.159l-0.596,0.159L3.11,16.778l-0.597-0.159l-0.162-0.597L1.916,15.59l0.161-0.595l-0.162-0.594   l0.438-0.437l0.16-0.594L3.11,13.21l0.438-0.433l0.598,0.159l0.598-0.159L5.18,13.21l0.598,0.161l0.159,0.595L6.374,14.401z"/>
</svg>